<?xml version="1.0" standalone="no"?>
<!DOCTYPE svg PUBLIC "-//W3C//DTD SVG 20010904//EN"
 "http://www.w3.org/TR/2001/REC-SVG-20010904/DTD/svg10.dtd">
<svg version="1.0" xmlns="http://www.w3.org/2000/svg"
 width="1000.000000pt" height="1000.000000pt" viewBox="0 0 1000.000000 1000.000000"
 preserveAspectRatio="xMidYMid meet">
<metadata>
Created by potrace 1.11, written by Peter Selinger 2001-2013
</metadata>
<g transform="translate(0.000000,1000.000000) scale(0.100000,-0.100000)"
fill="#000000" stroke="none">
<path d="M4860 8513 c-811 -42 -1528 -310 -2139 -799 -1324 -1061 -1745 -2895
-1015 -4422 470 -983 1353 -1709 2399 -1971 346 -87 636 -118 1000 -108 966
27 1837 409 2515 1103 177 182 290 320 425 524 548 826 733 1790 534 2773 -96
473 -311 965 -595 1362 -170 239 -412 503 -619 676 -623 522 -1348 809 -2165
859 -157 9 -215 10 -340 3z m390 -213 c858 -65 1633 -429 2230 -1047 754 -779
1093 -1845 929 -2920 -133 -878 -622 -1688 -1344 -2228 -518 -388 -1116 -617
-1763 -675 -170 -16 -584 -7 -742 15 -545 76 -1012 252 -1460 550 -530 353
-929 812 -1205 1389 -162 337 -259 667 -312 1056 -25 191 -26 648 0 840 113
841 485 1559 1102 2127 690 635 1635 963 2565 893z"/>
<path d="M3800 6697 c-61 -87 -153 -180 -310 -316 -269 -232 -408 -388 -527
-593 -86 -149 -92 -157 -199 -269 -113 -118 -145 -181 -152 -290 -11 -186 101
-364 322 -510 199 -132 649 -337 1486 -676 l255 -103 -240 7 c-396 13 -931 10
-997 -5 -85 -20 -122 -48 -126 -97 -2 -34 3 -47 33 -83 71 -82 229 -179 420
-255 477 -192 1264 -297 2213 -297 466 0 759 19 921 61 232 59 388 211 445
434 47 178 -15 343 -181 480 -90 75 -261 157 -508 245 -277 100 -352 137 -428
213 -74 74 -124 156 -178 297 -90 234 -117 360 -130 620 -15 309 -53 473 -118
517 -40 27 -75 29 -179 7 -104 -21 -171 -55 -250 -125 -37 -33 -78 -62 -91
-66 -41 -10 -413 5 -515 22 -55 8 -138 25 -185 37 -173 42 -197 66 -332 336
-43 86 -97 186 -121 222 -57 87 -152 178 -225 217 l-60 32 -43 -62z m90 -167
c70 -50 143 -203 179 -375 34 -159 93 -256 200 -324 145 -94 430 -135 766
-112 88 6 225 14 305 18 136 5 148 4 198 -17 72 -31 113 -83 151 -188 58 -167
58 -167 23 -197 -64 -54 -57 -172 13 -215 18 -11 42 -20 53 -20 21 0 21 -1 -3
-36 -59 -86 -8 -214 85 -214 23 0 24 -6 5 -40 -8 -14 -14 -44 -15 -68 0 -77
41 -125 117 -138 l38 -6 -4 -46 c-7 -97 47 -144 162 -142 62 2 84 -3 159 -34
48 -20 151 -52 230 -71 229 -56 317 -84 407 -128 156 -77 240 -189 228 -305
-8 -75 -52 -158 -105 -199 -91 -70 -275 -107 -527 -106 -325 0 -636 61 -830
161 -100 53 -147 103 -169 182 -135 480 -350 874 -623 1142 -230 226 -532 380
-861 440 -95 17 -159 21 -334 22 l-217 1 7 40 c4 22 7 112 7 200 0 135 -4 172
-23 238 -26 92 -27 127 -6 170 9 17 90 107 180 200 90 92 164 172 164 177 0
15 9 12 40 -10z m-704 -1349 c79 -132 333 -407 521 -566 39 -33 70 -61 68 -63
-6 -7 -206 73 -310 123 -391 191 -510 364 -365 529 18 20 38 35 44 33 6 -2 25
-27 42 -56z m1074 -52 c339 -53 639 -292 866 -690 50 -87 148 -298 142 -305
-2 -1 -39 27 -83 63 -217 178 -413 299 -743 460 -265 128 -340 174 -437 264
-82 77 -167 177 -160 189 6 9 115 28 185 32 65 4 155 -1 230 -13z"/>
<path d="M5381 5623 c-50 -25 -73 -68 -68 -127 4 -42 10 -55 41 -83 30 -28 43
-33 85 -33 135 0 180 178 60 242 -42 22 -74 23 -118 1z"/>
</g>
</svg>
